<svg id="icon" xmlns="http://www.w3.org/2000/svg" width="40.485" height="49.73" viewBox="0 0 40.485 49.73">
  <path id="Fire_-_simple-line-icons" data-name="Fire - simple-line-icons" d="M20.047,49.73a22.249,22.249,0,0,1-8.077-1.436A18.763,18.763,0,0,1,5.62,44.281a18.353,18.353,0,0,1-4.136-6.132A19.963,19.963,0,0,1,0,30.413a18.168,18.168,0,0,1,.56-4.452A37.223,37.223,0,0,1,1.8,21.946,30.216,30.216,0,0,1,3.065,19a10.9,10.9,0,0,1,.681-1.241,1.216,1.216,0,0,1,.633-.633,1.72,1.72,0,0,1,.7-.156,1.592,1.592,0,0,1,.175.01,1.5,1.5,0,0,1,.851.365,1.378,1.378,0,0,1,.463.754c.032.032.255.717.681,2.093a15.718,15.718,0,0,0,1.557,3.552A15.532,15.532,0,0,0,10.146,25.5a7.406,7.406,0,0,0,1.387,1.217,37.288,37.288,0,0,1-.73-5.207,23.958,23.958,0,0,1,.389-6.374,19.572,19.572,0,0,1,2.774-7.421,21.8,21.8,0,0,1,3.991-4.6A14.72,14.72,0,0,1,21.605.754C22.65.326,23.256.082,23.357.049a1.583,1.583,0,0,1,.778,0,2.136,2.136,0,0,1,.73.341,1.661,1.661,0,0,1,.414.68,1.426,1.426,0,0,1,.024.779l-.2,1.46a27.308,27.308,0,0,0-.17,3.747,35.173,35.173,0,0,0,.463,5.061,21.878,21.878,0,0,0,1.654,5.5c.156.313.339.656.56,1.047.231.408.446.782.657,1.143.066-.527.148-1.068.243-1.606a15.083,15.083,0,0,1,.39-1.654,7.817,7.817,0,0,1,2.651-4.477c1.16-.826,1.807-1.281,1.874-1.314a1.415,1.415,0,0,1,.637-.156,1.386,1.386,0,0,1,.92.35,1.493,1.493,0,0,1,.511.657,1.4,1.4,0,0,1,.073.851c0,.064.025.76.073,2.068a11.485,11.485,0,0,0,1.97,5.085,20.511,20.511,0,0,1,2.264,5.036,22.864,22.864,0,0,1,.607,5.766,19.4,19.4,0,0,1-1.533,7.736,18.432,18.432,0,0,1-4.258,6.132,19.52,19.52,0,0,1-6.447,4.014A22.727,22.727,0,0,1,20.047,49.73ZM4.866,22.724a36.044,36.044,0,0,0-1.193,3.649,15.167,15.167,0,0,0-.56,3.991,16.813,16.813,0,0,0,1.241,6.52,15.126,15.126,0,0,0,3.5,5.134A16.277,16.277,0,0,0,13.235,45.4a18.654,18.654,0,0,0,6.812,1.217A19.325,19.325,0,0,0,27.006,45.4a16.721,16.721,0,0,0,5.474-3.381,15.371,15.371,0,0,0,3.6-5.134,16.246,16.246,0,0,0,1.29-6.52,19.81,19.81,0,0,0-.487-4.866,17.147,17.147,0,0,0-1.946-4.282A20.43,20.43,0,0,1,33.43,18.15a13.729,13.729,0,0,1-.73-2.579,5.322,5.322,0,0,0-.463.8,5.68,5.68,0,0,0-.364,1.047,18.315,18.315,0,0,0-.681,4.841v2.361a1.83,1.83,0,0,1-.268.973,1.512,1.512,0,0,1-.8.633,1.659,1.659,0,0,1-.973,0,1.4,1.4,0,0,1-.778-.584L27.126,23.8l-.411-.61a33.484,33.484,0,0,1-2.482-4.258A25.477,25.477,0,0,1,22.8,14.768a31.563,31.563,0,0,1-.73-4.014A29.2,29.2,0,0,1,21.873,7.1c.016-1.13.057-2.145.122-3.017a20.317,20.317,0,0,0-4.355,3.82,15.549,15.549,0,0,0-3.381,7.81,20.006,20.006,0,0,0-.365,4.865,32.839,32.839,0,0,0,.463,4.234,26.489,26.489,0,0,0,.706,3.017L15.425,29a1.626,1.626,0,0,1-.292,1.606,1.873,1.873,0,0,1-.706.437,1.461,1.461,0,0,1-.489.088,1.3,1.3,0,0,1-.314-.039c-.1-.032-1.013-.433-2.725-1.193a11.366,11.366,0,0,1-4.72-4.5c-.227-.391-.456-.825-.68-1.29S5.06,23.177,4.866,22.724Z" fill="#fcd900"/>
</svg>
