<svg id="icon" xmlns="http://www.w3.org/2000/svg" width="50" height="50" viewBox="0 0 50 50">
  <path id="settings_-_simple-line-icons" data-name="settings - simple-line-icons" d="M26.563,50H23.438a2.486,2.486,0,0,1-2.051-1,5.857,5.857,0,0,1-1.075-2.124l-.976-4c-.523-.163-1.049-.352-1.562-.562a16.163,16.163,0,0,1-1.514-.708L12.647,43.9a4.4,4.4,0,0,1-2.271.708c-.065,0-.13.005-.194.005a2.693,2.693,0,0,1-2.029-.86l-2.246-2.2a2.63,2.63,0,0,1-.733-2.2,5.553,5.553,0,0,1,.733-2.246L8.2,33.3c-.189-.378-.378-.781-.562-1.2a10.083,10.083,0,0,1-.464-1.294l-4.053-.976A5.857,5.857,0,0,1,1,28.76a2.487,2.487,0,0,1-1-2.05V23.584a2.888,2.888,0,0,1,1-2.221,4.279,4.279,0,0,1,2.124-1.1l4-.878a11.526,11.526,0,0,1,.489-1.367c.194-.454.392-.9.586-1.318l-2.3-3.809a5.553,5.553,0,0,1-.733-2.246,2.625,2.625,0,0,1,.733-2.2l2.246-2.2a2.69,2.69,0,0,1,2.029-.859c.064,0,.129,0,.194.005a4.381,4.381,0,0,1,2.271.708L16.259,8.4c.49-.261.991-.5,1.49-.708s1.025-.4,1.538-.562l1.025-4A5.271,5.271,0,0,1,21.338,1a2.536,2.536,0,0,1,2.1-1h3.125a2.815,2.815,0,0,1,2.2,1,4.788,4.788,0,0,1,1.123,2.075l.879,4.1c.493.164.978.345,1.44.537s.944.411,1.391.635L37.11,6.1A4.615,4.615,0,0,1,39.4,5.4c.064,0,.128-.005.19-.005a2.817,2.817,0,0,1,2.056.859l2.2,2.2a2.564,2.564,0,0,1,.781,2.2,5.178,5.178,0,0,1-.781,2.246L41.7,16.5c.229.458.451.926.66,1.391a9.013,9.013,0,0,1,.513,1.49l4,.878A4.264,4.264,0,0,1,49,21.362a2.886,2.886,0,0,1,1,2.221v3.126a2.483,2.483,0,0,1-1,2.05,5.857,5.857,0,0,1-2.124,1.075l-4.053.976c-.166.5-.339.966-.512,1.391A13.357,13.357,0,0,1,41.7,33.5l2.149,3.613a5.177,5.177,0,0,1,.781,2.246,2.571,2.571,0,0,1-.781,2.2l-2.2,2.2a2.818,2.818,0,0,1-2.056.86c-.062,0-.126,0-.19-.005a4.633,4.633,0,0,1-2.3-.708L33.593,41.65c-.439.22-.9.434-1.367.635a15.365,15.365,0,0,1-1.464.536l-.879,4.053A4.264,4.264,0,0,1,28.784,49,2.886,2.886,0,0,1,26.563,50ZM16.047,38.063h0l1.619.834c.42.227.849.433,1.275.614a13.574,13.574,0,0,0,1.275.467l1.668.54,1.472,5.794a2.142,2.142,0,0,0,.122.418.848.848,0,0,0,.172.27H26.5a1.7,1.7,0,0,0,.172-.246,1.4,1.4,0,0,0,.172-.392l1.275-5.844,1.716-.59c.391-.13.787-.279,1.177-.442s.783-.343,1.177-.54l1.619-.835,5.151,3.29.245.122a2.181,2.181,0,0,0,.294.123l2.06-2.063a1.02,1.02,0,0,0-.073-.344,2.833,2.833,0,0,0-.221-.442l-3.09-5.107.785-1.572a9.528,9.528,0,0,0,.515-1.1c.148-.377.288-.765.417-1.154l.54-1.621,5.837-1.473a2.123,2.123,0,0,0,.417-.122.859.859,0,0,0,.27-.172l.049-2.8a1.717,1.717,0,0,0-.245-.172,1.3,1.3,0,0,0-.442-.172L40.476,22l-.539-1.718a8.462,8.462,0,0,0-.392-1.179c-.164-.393-.362-.806-.589-1.228l-.785-1.571,3.09-5.156a1.609,1.609,0,0,0,.221-.393.926.926,0,0,0,.073-.294l-2.06-2.013a1.165,1.165,0,0,0-.319.049,1.129,1.129,0,0,0-.319.148L33.8,11.888l-1.619-.834c-.372-.187-.768-.377-1.177-.565a6.43,6.43,0,0,0-1.226-.418l-1.717-.589L26.79,3.541a1.475,1.475,0,0,0-.147-.369L26.545,3H23.651a1.138,1.138,0,0,0-.2.3,1.722,1.722,0,0,0-.148.491l-1.422,5.7-1.668.54a13.129,13.129,0,0,0-1.275.466c-.418.177-.847.383-1.275.614l-1.619.835L10.8,8.6l-.245-.123a2.347,2.347,0,0,0-.294-.122L8.2,10.415a1.011,1.011,0,0,0,.073.344,2.756,2.756,0,0,0,.221.442l3.188,5.3L10.9,18.027c-.2.429-.367.815-.515,1.178a9.319,9.319,0,0,0-.368,1.081L9.475,22,3.54,23.331a1.791,1.791,0,0,0-.319.147.668.668,0,0,1-.221.1v2.9a.847.847,0,0,0,.294.172,2.688,2.688,0,0,0,.49.122l5.739,1.473.54,1.67a9.609,9.609,0,0,0,.367,1.007c.145.338.318.693.516,1.056l.735,1.522L8.494,38.848a1.59,1.59,0,0,0-.221.392,1,1,0,0,0-.073.344L10.26,41.6a.815.815,0,0,0,.319-.074,1.893,1.893,0,0,0,.319-.172l5.15-3.289ZM24.476,33a9.452,9.452,0,0,1-6.687-2.625,8.682,8.682,0,0,1,0-12.75A9.452,9.452,0,0,1,24.476,15a9.516,9.516,0,0,1,6.736,2.624,8.682,8.682,0,0,1,0,12.75A9.517,9.517,0,0,1,24.476,33ZM25.5,19A6.5,6.5,0,0,0,19,25.5,6.5,6.5,0,0,0,25.5,32,6.5,6.5,0,0,0,32,25.5,6.5,6.5,0,0,0,25.5,19Z" fill="#fcd900"/>
</svg>
