<svg xmlns="http://www.w3.org/2000/svg" width="48.706" height="48.794" viewBox="0 0 48.706 48.794">
  <g id="icon" transform="translate(0)">
    <path id="Rocket_-_simple-line-icons" data-name="Rocket - simple-line-icons" d="M20.27,48.794a1.147,1.147,0,0,1-.213-.023.88.88,0,0,1-.214-.072,1.34,1.34,0,0,1-.664-.4,1.575,1.575,0,0,1-.38-.688l-1.85-7.83-3.416-3.8c-.826-.922-1.513-1.681-2.041-2.255s-.952-1.071-1.233-1.447L1.193,30.191a1.519,1.519,0,0,1-.712-.355A1.655,1.655,0,0,1,.054,29.2a2.015,2.015,0,0,1-.023-.807,1.255,1.255,0,0,1,.355-.664L5.938,21.65a1.622,1.622,0,0,1,.522-.356,1.589,1.589,0,0,1,.617-.119h8.446c.227-.425.482-.908.854-1.614.3-.575.623-1.213.95-1.9.826-1.683,1.712-3.439,2.633-5.22a21.634,21.634,0,0,1,2.871-4.366,19.631,19.631,0,0,1,3.606-3.393,17.21,17.21,0,0,1,4.129-2.159A35.342,35.342,0,0,1,36.594.841,49.634,49.634,0,0,1,41.956.13C43.189.044,44.243,0,45.09,0c.244,0,.475,0,.687.011l1.447.047a1.558,1.558,0,0,1,1.424,1.424c0,.1.017.765.047,1.827.032,1.122,0,2.511-.095,4.128s-.286,3.418-.57,5.339a27.1,27.1,0,0,1-1.376,5.458,22.161,22.161,0,0,1-1.85,3.82,17.331,17.331,0,0,1-3.322,3.678,22.741,22.741,0,0,1-4.84,3.084c-2.17,1.1-4.134,2.154-5.837,3.132-.616.339-1.229.673-1.874,1.02-.622.336-1.125.631-1.495.878v7.83a1.51,1.51,0,0,1-.143.641,1.356,1.356,0,0,1-.379.5l-5.648,5.6a1.205,1.205,0,0,1-.451.284A1.58,1.58,0,0,1,20.27,48.794ZM7.79,24.212h0L4.372,27.819,11.3,29.385a1.244,1.244,0,0,1,.45.19,2.6,2.6,0,0,1,.4.332c.152.184.994,1.127,2.728,3.06l4.58,5.1a1.454,1.454,0,0,1,.237.308,1.4,1.4,0,0,1,.142.356l1.329,5.742L24.4,40.964V33.039a1.522,1.522,0,0,1,.142-.641,1.572,1.572,0,0,1,.428-.546,9.666,9.666,0,0,1,1.518-1c.738-.417,1.7-.944,2.848-1.566,1.547-.884,3.407-1.882,5.528-2.966a24.457,24.457,0,0,0,4.627-2.871,15.659,15.659,0,0,0,2.752-3.061,17.872,17.872,0,0,0,1.566-3.251,23.746,23.746,0,0,0,1.044-3.82c.251-1.328.442-2.661.57-3.963s.2-2.5.213-3.606.024-2.014.024-2.705h-.04c-.645,0-1.455.023-2.476.07s-2.152.151-3.393.309-2.578.389-3.962.688a28,28,0,0,0-4.176,1.257,13.424,13.424,0,0,0-3.464,1.8,18.2,18.2,0,0,0-3.038,2.848,22.582,22.582,0,0,0-2.587,4.1c-.91,1.773-1.748,3.425-2.491,4.911-.434.867-.857,1.7-1.257,2.468-.386.742-.745,1.4-1.067,1.946a2.086,2.086,0,0,1-.57.545,1.3,1.3,0,0,1-.712.213H7.79ZM.1,48.556h0L.054,46.99c0-3.78.4-6.358,1.186-7.664a8.388,8.388,0,0,1,3.607-3.155c.415-.192.822-.392,1.21-.594a8.155,8.155,0,0,0,1.257-.83L9.166,37.12A11.4,11.4,0,0,1,7.6,38.14c-.57.3-1.006.536-1.376.735a5.839,5.839,0,0,0-2.23,1.756c-.5.692-.791,2.336-.854,4.888,2.645-.1,4.353-.454,5.077-1.068a7.11,7.11,0,0,0,1.8-2.444c.2-.392.4-.8.616-1.21a10.459,10.459,0,0,1,.854-1.352l2.231,2.04a11.11,11.11,0,0,0-.617,1.139c-.077.175-.162.363-.251.561l-.041.093-.1.221-.034.075A9.1,9.1,0,0,1,9.592,47.2C8.3,48.07,5.6,48.509,1.573,48.509ZM33.51,21.223a6.076,6.076,0,0,1-6.074-6.074A6.073,6.073,0,0,1,37.8,10.854a5.875,5.875,0,0,1,1.78,4.295,6.078,6.078,0,0,1-6.074,6.074Zm0-9.112a2.907,2.907,0,0,0-2.159.9,3.034,3.034,0,0,0,0,4.271,3.028,3.028,0,1,0,4.294-4.271A2.931,2.931,0,0,0,33.51,12.111Z" fill="#fcd900"/>
  </g>
</svg>
